PathFileType	4	(X/Y/Z)	C:/Users/beibeiliu/ov580/test_trc/User3\out8_training_dense_right.trc
DataRate	CameraRate	NumFrames	NumMarkers	Units	OrigDataRate	OrigDataStartFrame	OrigNumFrames
120	120	24	19	mm	120	126	500
Frame#	Time	ThumbCMC			ThumbMCP			ThumbIP			ThumbTip			IndexMCP			IndexPIP			IndexTip			MiddleMCP			MiddlePIP			MiddleTip			RingMCP			RingPIP			RingTip			PinkyMCP			PinkyPIP			PinkyTip			BackHand1			BackHand2			BackHand3	
		X0	Y0	Z0	X1	Y1	Z1	X2	Y2	Z2	X3	Y3	Z3	X4	Y4	Z4	X5	Y5	Z5	X6	Y6	Z6	X7	Y7	Z7	X8	Y8	Z8	X9	Y9	Z9	X10	Y10	Z10	X11	Y11	Z11	X12	Y12	Z12	X13	Y13	Z13	X14	Y14	Z14	X15	Y15	Z15	X16	Y16	Z16	X17	Y17	Z17	X18	Y18	Z18	
125	1.04167	134.874	36.5069	34.7525	121.371	28.4993	-1.50208	130.042	21.4836	-28.827	155.318	15.2886	-42.5953	144.846	67.5815	-29.9214	129.573	42.5469	-44.4961	133.366	26.0311	-13.0708	165.514	60.2994	-38.9949	147.194	31.8697	-47.6668	155.954	24.0066	-8.25989	177.491	46.7999	-36.7432	167.187	17.0227	-41.4976	160.575	11.0487	-12.7296	197.019	45.5733	-22.7553	195.2	49.1089	-42.6203	191.779	51.8054	-65.2039	198.478	55.2337	19.6201	196.971	41.0773	47.8626	164.345	60.9068	38.0099	
126	1.05	135.41	36.3988	32.1948	122.166	28.0984	-0.190114	129.131	21.1773	-31.1711	152.489	13.2742	-40.91	145.256	68.5404	-31.4364	133.814	41.1235	-48.6181	133.814	22.4468	-21.9684	166.072	58.3791	-42.6749	151.471	30.4508	-49.6026	155.994	22.0611	-12.4412	181.205	43.2898	-39.5202	166.986	18.0763	-43.6355	163.784	9.20717	-10.0822	200.358	43.8429	-23.9354	199.087	45.7887	-46.3324	193.03	50.6607	-67.1747	195.12	55.763	19.1333	198.864	41.1381	48.2283	165.61	63.1399	36.6974	
127	1.05833	134.606	37.2769	31.3184	126.04	27.9567	-2.18576	130.057	17.9337	-29.4657	154.397	10.1308	-42.0282	153.033	66.9382	-35.0098	134.793	47.3792	-56.4635	128.053	21.9578	-34.8301	165.612	56.6449	-42.1444	153.196	26.5987	-49.9102	154.224	21.43	-10.7932	179.017	41.4	-38.2167	166.818	11.2865	-41.3445	164.288	6.97798	-10.6952	201.516	42.4966	-28.5398	197.361	42.888	-49.5932	196.434	46.2824	-69.6471	197.226	51.7196	16.4032	194.339	39.5968	49.988	167.372	57.8898	36.8668	
128	1.06667	131.94	36.2756	32.2211	123.848	24.3685	-0.201215	132.359	14.7299	-30.2988	157.803	5.27883	-44.6995	154.971	70.6734	-35.5823	147.79	58.6042	-62.7231	133.004	29.2509	-61.0724	168.274	53.1475	-40.7556	150.86	24.54	-51.6237	152.931	19.4547	-11.0282	179.006	37.6245	-40.3481	165.663	8.94061	-41.4055	161.325	7.64491	-8.10442	203.122	38.7087	-28.3787	198.601	41.2588	-45.1438	194.738	42.7021	-66.1087	197.01	50.068	14.5063	198.376	41.0872	47.2936	167.088	57.4815	35.8922	
129	1.075	135.819	35.0709	28.0318	125.461	22.7203	-4.32352	130.851	10.3538	-33.0917	155.836	-0.83299	-44.5386	160.974	70.3474	-38.1309	152.445	68.8127	-65.5942	142.093	45.3029	-83.2995	167.101	47.8773	-46.6624	153.329	18.1287	-51.8247	150.289	16.4415	-10.7031	180.299	32.4838	-38.8926	167.544	5.70952	-42.864	162.104	3.47271	-6.56726	200.208	33.9551	-23.8619	201.656	34.4954	-50.3831	199.984	35.689	-71.229	196.522	48.0529	15.1664	194.566	39.1401	47.8527	166.52	59.4305	32.8803	
130	1.08333	136.47	34.9209	28.9956	124.349	19.9105	-7.7018	134.956	7.03995	-33.9103	157.937	-4.79472	-41.2787	162.402	69.0667	-36.1376	157.687	73.2125	-64.3066	157.84	62.8093	-90.8715	171.562	39.8128	-48.0715	153.005	13.7404	-50.5629	150.808	10.4862	-13.9987	182.283	25.7198	-39.5681	165.635	-0.0222677	-39.3068	159.995	0.401092	-4.82608	199.742	31.0116	-27.0469	202.764	29.8293	-46.1451	201.033	34.2635	-70.611	196.127	47.477	13.9715	199.028	36.2454	45.3277	168.763	56.9138	29.4063	
131	1.09167	137.884	34.7416	25.0137	124.961	17.3314	-3.42475	133.653	1.72339	-34.7501	156.934	-9.32736	-41.7238	160.845	67.3949	-35.7212	163.086	72.5334	-62.4194	162.591	72.4627	-89.3705	173.304	38.5967	-44.6257	153.879	9.83901	-51.2659	153.994	6.03536	-12.8527	184.272	22.7328	-37.6875	166.784	-3.32484	-39.838	162.046	-2.21097	-4.81307	202.994	27.2371	-25.9606	201.91	27.1127	-49.3044	204.304	29.6736	-68.7224	196.338	43.9517	14.9899	199.281	39.7085	41.5486	170.483	57.43	25.8555	
132	1.1	133.506	33.73	28.9136	124.377	15.1764	-4.0773	135.131	-0.191518	-34.47	159.879	-10.5292	-37.8037	165.967	61.6228	-36.2843	167.602	67.5204	-62.4629	167.94	74.5105	-91.5262	172.06	39.1677	-46.1557	156.541	7.33603	-53.6737	152.8	1.76631	-17.2916	184.613	20.4587	-38.7679	168.873	-4.19278	-41.4471	160.099	-3.20526	-6.80884	204.584	24.1306	-22.8269	201.935	26.1519	-48.8211	201.191	27.107	-67.4582	200.167	43.9405	15.4105	200.344	36.8181	45.5036	169.433	57.9303	30.3485	
133	1.10833	133.641	33.1579	29.1453	130.38	14.1847	-5.34237	138.379	-0.711207	-28.1959	161.576	-12.1444	-35.7304	163.265	63.4579	-38.6687	165.511	66.7327	-64.2799	173.502	69.4638	-89.7992	176.202	33.6206	-47.0167	157.545	10.2833	-56.3888	153.735	-0.463749	-17.4051	187.616	19.2881	-37.1376	173.589	-7.41969	-39.4978	166.349	-8.09168	-6.27901	207.049	23.602	-25.1509	205.911	24.212	-48.6473	202.212	26.3802	-64.6065	198.551	42.0883	14.3874	196.805	41.3342	42.6365	167.663	56.953	28.1254	
134	1.11667	138.236	31.8149	30.1021	129.812	13.2199	-1.05921	136.464	-3.06744	-31.9133	164.019	-13.1383	-37.7556	166.184	60.6509	-36.1941	163.91	66.5478	-61.4784	170.123	68.82	-89.2155	173.885	36.3678	-46.7179	159.26	7.04506	-54.9083	155.365	0.525997	-13.2173	185.604	20.948	-37.4643	172.443	-6.22727	-40.0822	162.357	-3.87093	-4.23294	205.024	23.6809	-20.0566	202.024	25.5922	-46.3394	202.202	27.6764	-64.9704	197.866	43.9563	18.2056	196.943	37.8455	48.375	171.642	55.3429	31.1584	
135	1.125	136.74	32.1686	28.4395	127.108	12.3172	-2.77829	137.137	-3.0639	-31.6361	163.662	-12.0487	-35.5276	162.595	61.3647	-34.6675	168.121	63.4588	-61.0239	172.39	65.507	-86.0869	176.031	33.4386	-47.1093	160.658	6.468	-54.1424	153.643	-1.18058	-17.0055	185.316	18.6254	-38.925	171.138	-8.04576	-36.4277	165.914	-7.47477	-5.98407	204.513	23.5081	-21.0177	205.126	25.4414	-46.6259	204.912	27.7153	-66.1422	199.084	41.7187	14.7679	198.207	39.881	48.7087	170.15	54.7073	27.3438	
136	1.13333	136.506	30.6806	31.0354	131.771	12.4885	-1.69684	140.2	-2.49882	-27.3992	164.14	-12.1568	-35.1011	167.135	58.1165	-33.8338	164.493	64.7238	-60.8169	171.581	63.7412	-88.8541	176.206	32.8552	-45.7148	159.27	8.30529	-55.1947	154.888	-0.50518	-16.4492	189.096	18.2907	-35.7972	174.19	-7.67351	-37.6724	165.669	-7.33256	-3.26975	205.325	24.338	-21.1485	205.471	24.0432	-45.9789	202.597	27.6906	-66.5143	200.555	42.5445	14.8126	200.552	35.9816	48.4371	172.001	55.5558	28.2199	
137	1.14167	135.992	29.8682	30.2971	131.257	11.3927	-3.34737	139.387	-3.38628	-31.6158	162.915	-13.9422	-33.9204	166.798	59.0651	-38.046	165.305	62.5319	-62.623	168.645	64.3901	-87.5939	175.554	31.524	-45.3171	156.193	3.23063	-50.9554	152.81	1.79899	-13.3867	187.88	16.0808	-38.5226	169.948	-10.479	-35.3811	163.352	-5.47701	-2.43057	204.42	24.2695	-24.0822	205.54	24.5178	-44.547	207.095	23.4775	-69.0582	203.47	40.1033	16.8044	197.937	40.419	46.1382	169.069	55.5408	27.43	
138	1.15	135.85	30.0003	29.0937	128.832	10.7487	-2.72278	138.107	-5.12591	-30.8206	164.059	-17.5825	-38.3533	167.243	57.5839	-38.6086	165.492	62.3247	-65.6513	169.836	61.8556	-88.1541	174.785	30.3269	-46.9776	156.66	1.95134	-48.7416	155.984	-0.919955	-13.886	187.654	16.8538	-35.0876	172.816	-12.4383	-35.0148	162.609	-6.71968	-3.26401	204.832	23.292	-23.2515	204.636	23.8316	-44.2231	206.572	24.77	-67.912	200.314	42.4249	14.4079	200.877	38.0473	45.3135	170.049	53.1435	30.1654	
139	1.15833	139.024	29.0316	30.4033	132.702	11.8093	-2.58672	138.371	-4.74242	-30.167	162.353	-14.4795	-34.4402	162.745	60.6501	-38.0873	163.485	63.1453	-65.9381	166.336	63.5125	-86.921	173.949	32.676	-46.0538	157.613	2.5233	-49.352	156.74	-0.0154273	-13.0992	185.286	19.1909	-35.0704	173.53	-8.89094	-38.1596	165.106	-6.48772	-2.68409	207.059	22.612	-23.823	205.078	24.4094	-41.5045	206.395	26.7708	-66.6101	198.774	42.2077	14.9876	199.871	39.0367	46.8335	171.14	53.7664	30.0883	
140	1.16667	138.938	30.6422	28.5654	127.113	12.5968	-3.2136	136.699	-1.59772	-27.8905	162.731	-10.3591	-37.3272	161.593	62.3504	-33.8082	165.301	65.693	-64.3052	164.117	69.9437	-87.8052	173.906	38.3118	-42.954	156.944	7.94548	-51.9117	157.536	0.912161	-14.0727	189.06	20.8844	-37.6168	171.673	-4.86113	-39.8153	167.396	-5.60081	-3.66842	206.342	25.0918	-19.6933	205.163	28.585	-40.224	205.184	33.9394	-67.5732	201.53	39.9544	18.8546	198.843	37.8924	45.4738	167.362	55.8354	31.0585	
141	1.175	134.896	30.6428	31.6767	131.324	16.5367	-5.19789	138.085	5.66852	-34.4539	163.683	-2.70291	-39.1338	159.72	71.3011	-34.2371	164.09	74.879	-58.4	165.153	78.6587	-83.2133	176.5	45.1506	-42.0949	158.36	18.8284	-54.9259	156.752	6.39665	-18.3571	184.73	30.9939	-38.4724	175.082	2.17516	-41.0297	166.122	-2.25304	-11.4866	209.369	32.4485	-20.4035	206.572	38.1233	-44.4436	209.075	41.7629	-64.3834	197.432	48.4955	17.9029	200.784	39.7267	49.4714	170.627	55.8018	32.9375	
142	1.18333	137.045	33.9302	25.9859	129.795	21.1125	-7.43608	141.864	13.7502	-37.4715	165.748	5.88503	-43.1157	163.449	77.6655	-29.7417	162.162	86.0703	-54.4339	163.926	92.9188	-78.6005	177.513	55.0443	-43.4199	166.792	29.2654	-57.4424	161.137	14.3345	-17.8413	189.483	39.0068	-39.9675	177.657	15.0182	-46.7763	169.981	5.08833	-10.8067	209.798	42.5879	-20.983	207.705	48.6026	-40.0755	213.186	55.3721	-63.8189	198.205	50.5578	22.8452	202.782	43.2521	46.9414	167.844	61.2352	34.7938	
143	1.19167	142.909	36.2875	24.0239	134.838	24.0916	-8.48127	147.5	16.8759	-40.5581	175.468	11.503	-47.1068	166.213	81.1393	-27.3211	167.558	93.159	-56.6684	173.067	97.99	-79.6677	183.404	60.2438	-41.2158	172.877	33.6879	-58.9546	163.852	17.4975	-20.9985	195.807	45.3316	-34.7585	185.019	14.089	-43.7902	174.642	7.46182	-14.6515	215.092	45.3457	-17.7551	215.466	51.6567	-39.6272	213.017	61.3539	-62.3049	201.667	57.7652	19.8462	199.818	42.8756	51.9129	170.769	60.4185	33.1497	
144	1.2	144.498	35.5729	25.5285	139.362	21.5178	-12.1638	154.414	12.5674	-38.5208	178.634	3.74561	-46.9213	174.374	78.9743	-35.8002	180.013	86.1025	-62.3647	179.182	91.986	-84.3887	187.84	55.3376	-43.0778	178.304	26.2322	-58.9248	167.723	13.3166	-24.2728	201.894	38.2365	-38.8997	192.955	11.9576	-45.2543	179.822	4.9311	-11.2595	222.101	42.5593	-19.05	221.15	49.218	-44.1117	221.402	51.2976	-62.1974	205.868	53.9072	16.8468	201.545	45.7356	51.3937	175.297	64.2661	29.2848	
145	1.20833	147.825	34.1817	20.458	146.33	15.5021	-13.6514	157.79	-0.457413	-37.5454	183.985	-9.28502	-42.3835	183.169	63.552	-44.3186	185.652	67.7943	-68.5188	188.918	69.761	-94.4166	195.917	40.6375	-47.1303	183.288	10.3795	-59.8663	172.072	2.79013	-21.9517	206.328	25.6213	-39.1468	193.417	-3.75439	-41.0454	182.975	-2.20114	-8.3278	223.734	31.5086	-18.8398	226.722	33.0845	-42.0833	232.209	30.1681	-66.0965	212.115	47.4721	17.5188	204.94	45.9255	46.526	180.749	60.611	24.2767	
146	1.21667	149.743	31.2614	15.0296	146.581	7.48134	-8.91097	160.783	-12.4676	-32.741	182.382	-23.8563	-33.1112	182.75	48.0965	-52.8024	184.826	45.1029	-73.9528	194.803	39.5389	-100.888	196.656	22.243	-48.7046	183.352	-8.87259	-54.3436	171.489	-5.6123	-14.4634	207.9	9.31824	-35.5759	192.855	-18.2649	-33.6185	181.012	-11.2361	-4.24237	226.384	18.0725	-23.0934	227.615	14.0473	-45.5293	227.403	7.00832	-68.0025	211.346	44.5233	9.38932	207.08	43.2823	40.8422	180.366	55.4791	19.1923	
147	1.225	146.827	29.6452	16.2212	142.671	1.49859	-4.41011	154.098	-21.1841	-23.3848	176.733	-33.4953	-24.3882	182.306	31.5276	-50.4493	184.872	25.1304	-76.4912	188.458	15.3233	-101.68	194.141	4.58352	-48.7822	173.604	-23.7032	-47.2736	162.46	-11.7243	-10.269	200.822	-4.52671	-33.7281	186.252	-30.1921	-27.7621	174.577	-17.4097	2.15391	218.652	4.48831	-18.4982	222.749	-5.31322	-40.8695	223.712	-16.5467	-62.109	210.284	36.0076	9.25236	206.138	41.0346	35.6657	182.126	50.976	15.9377	
148	1.23333	146.442	31.6265	19.4778	134.824	0.962844	-1.11178	141.847	-25.6267	-19.2923	162.067	-41.6591	-18.3991	174.834	23.4227	-52.903	176.063	10.8733	-77.9891	174.416	0.650795	-101.165	180.968	-4.82929	-46.5795	162.554	-30.6908	-43.3636	155.287	-15.9241	-4.1901	188.247	-15.6262	-32.1012	172.189	-38.18	-20.9314	162.876	-19.4516	6.26468	211.42	-8.56819	-21.1974	210.827	-23.8057	-40.9809	201.26	-39.1459	-58.6122	208.407	25.182	6.15723	206.583	37.5104	35.1915	184.084	48.9098	13.0123	
